<svg xmlns="http://www.w3.org/2000/svg" xmlns:xlink="http://www.w3.org/1999/xlink" version="1.1" id="Layer_1" x="0px" y="0px" width="100px" height="100px" viewBox="0 0 100 100" enable-background="new 0 0 100 100" xml:space="preserve">
<g>
	<path d="M42.386,14.24c-1.907,0-3.477,1.576-3.477,3.52v11.938h-2.972c-2.215,0-3.898,1.943-3.589,4.14L35.6,56.87   c0.309,2.196,2.244,3.886,4.459,3.886h2.58h3.814v24.188c0,0.423,0.364,0.816,0.785,0.816c0.42,0,0.813-0.394,0.785-0.816V60.756   h3.981v24.188c-0.028,0.423,0.364,0.816,0.785,0.816s0.785-0.394,0.785-0.816V60.756h3.785h2.637c2.215,0,4.149-1.689,4.458-3.886   l3.197-23.032c0.309-2.196-1.318-4.14-3.533-4.14h-3.001V17.76c0-1.943-1.57-3.52-3.477-3.52c-1.936,0-3.506,1.576-3.506,3.52   v11.938h-0.869H46.76h-0.869V17.76C45.891,15.816,44.321,14.24,42.386,14.24L42.386,14.24z M42.386,15.816   c1.066,0,1.907,0.873,1.907,1.943v11.938h-3.814V17.76C40.479,16.689,41.32,15.816,42.386,15.816L42.386,15.816z M57.641,15.816   c1.065,0,1.906,0.873,1.906,1.943v11.938h-3.813V17.76C55.733,16.689,56.574,15.816,57.641,15.816L57.641,15.816z M35.937,31.275   H46.76h6.505h10.853c1.346,0,2.159,0.985,1.963,2.337l-3.197,23.032c-0.196,1.352-1.514,2.534-2.888,2.534h-2.637H42.638h-2.58   c-1.374,0-2.72-1.183-2.917-2.534l-3.197-23.032C33.749,32.261,34.59,31.275,35.937,31.275L35.937,31.275z"/>
</g>
</svg>